<?xml version="1.0" standalone="no"?>
<!DOCTYPE svg PUBLIC "-//W3C//DTD SVG 1.0//EN" "http://www.w3.org/TR/2001/REC-SVG-20010904/DTD/svg10.dtd">
<svg xmlns="http://www.w3.org/2000/svg" xmlns:xlink="http://www.w3.org/1999/xlink" id="body_1" width="219" height="203">

<g transform="matrix(0.40036565 0 0 0.4003945 0 0)">
	<g>
        <path d="M509.67 255C 509.67 314.14 488.44 364.94 445.97 407.4C 403.51 449.86 352.55 471.1 293.1 471.1C 251.27 471.1 213.05 459.77002 178.45001 437.12C 144.79001 415.41998 118.21001 385.53998 98.71101 347.47998C 97.138016 343.38998 94.46401 337.24997 90.69002 329.08C 89.11702 326.25 85.34302 322.47 79.36602 317.75C 73.70402 313.03 69.45802 308.16 66.62702 303.13C 62.223022 293.69 55.30302 279.85 45.86702 261.61002L45.86702 261.61002L45.86702 259.25003C 50.58502 262.08002 55.460022 265.07004 60.49302 268.21002C 65.52602 271.04 70.71602 272.46002 76.06302 272.46002C 77.32102 272.46002 77.95102 271.99002 77.95102 271.04L77.95102 271.04L77.95102 263.02002C 77.95102 256.1 74.64802 251.54002 68.04202 249.34003C 57.348022 246.19003 50.742023 243.52002 48.22602 241.32002C 44.76602 238.80002 41.46302 235.18002 38.31702 230.46002C 33.91402 224.80002 32.34102 220.71002 33.599022 218.20003C 31.083021 215.05003 29.353022 209.70003 28.409021 202.16003C 26.207022 200.90004 24.477022 196.97003 23.21902 190.36003C 19.13002 187.21004 12.682021 182.65002 3.8740215 176.68002C 4.8178215 175.73003 10.480021 175.26003 20.860022 175.26003C 23.691021 175.26003 26.050022 175.10002 27.937021 174.79002C 27.937021 173.85002 27.623022 172.43002 26.99402 170.54002C 26.364021 168.66002 26.05002 167.24002 26.05002 166.30002C 26.05002 160.32002 28.72402 153.56001 34.071022 146.01001C 34.38502 146.01001 39.26102 140.35 48.69802 129.02C 53.41602 120.22 61.751022 107.630005 73.704025 91.27701C 70.55903 88.13101 65.998024 86.559006 60.021027 86.55801C 57.505028 86.559006 53.416027 90.019005 47.75403 96.938C 41.14803 104.8 36.58703 109.36 34.07103 110.62L34.07103 110.62L31.71203 110.62C 31.08303 110.310005 30.76803 109.520004 30.76803 108.26C 30.76803 110.78 32.65503 106.53 36.43003 95.523C 36.74503 92.692 38.31703 88.603004 41.14803 83.256004C 42.09203 82.312004 48.38303 77.75101 60.021027 69.573006C 67.57002 64.54001 71.345024 58.092007 71.345024 50.228004C 71.345024 42.364002 76.06303 36.702003 85.50002 33.242004C 93.04903 30.726004 100.60002 28.052004 108.150024 25.221004C 108.46002 24.907005 111.29002 22.233006 116.64002 17.200005C 119.470024 14.369004 123.25002 12.954004 127.96002 12.954004C 135.51003 12.954004 141.02002 15.942004 144.48003 21.918003C 144.79002 21.604004 144.95003 20.975002 144.95003 20.031004C 144.95003 12.797004 139.92003 10.280004 129.85002 12.482004C 129.22002 12.168004 128.91002 11.381004 128.91002 10.123004C 128.91002 5.719304 133.15002 3.517404 141.65002 3.5171041C 146.05002 3.517404 150.30002 4.9329042 154.39003 7.763504C 158.48003 10.2800045 161.94003 11.538004 164.77003 11.538004C 165.71004 11.538004 167.13004 11.381004 169.01004 11.066004C 170.90004 10.438004 172.32004 10.123004 173.26004 10.123004C 180.81004 10.123004 186.16003 13.111004 189.30005 19.087004C 195.91005 14.999004 202.67004 12.954004 209.59006 12.954004C 210.22006 12.954004 216.82005 14.527004 229.41006 17.672005C 241.99007 20.503004 248.44006 21.919004 248.75006 21.918005L248.75006 21.918005L248.75006 24.749004C 247.49007 24.435005 246.23006 24.278004 244.98006 24.277004C 238.37006 24.278004 232.87006 27.423004 228.46005 33.714005L228.46005 33.714005L244.98006 33.714005C 249.69006 29.625004 255.99005 27.580006 263.85007 27.580006C 267.94006 27.580006 272.19006 28.681005 276.59006 30.883005C 280.99005 32.771004 283.04007 33.714005 282.72006 33.714005C 282.72006 33.714005 284.61008 32.771004 288.38007 30.883005C 292.47006 28.681005 296.25006 27.580006 299.71005 27.580006C 303.80005 27.580006 310.09006 29.468006 318.58005 33.242004C 320.15005 34.501003 322.67004 36.545006 326.13004 39.376003C 331.48004 40.320004 337.93002 41.578003 345.48004 43.15C 359.94003 46.611 373.16003 51.329002 385.11005 57.305C 423.80005 76.493 454.15005 103.54 476.17004 138.45999C 498.50003 173.06 509.67004 211.90999 509.67004 255M323.30005 42.679993C 320.78006 37.64699 316.69006 35.130993 311.03006 35.129993C 308.52005 35.130993 305.53006 35.916992 302.07007 37.488995C 307.73007 41.263996 313.71008 42.993996 320.00006 42.679993L320.00006 42.679993L323.30005 42.679993zM334.62006 66.743C 333.05005 62.024998 331.32007 57.463997 329.43005 53.059998C 326.92004 47.398 323.46005 44.566998 319.05005 44.566998C 317.79004 44.566998 316.54004 44.881996 315.28006 45.510998C 318.42007 47.084 324.87006 54.160995 334.62006 66.743M336.04007 69.574L336.04007 67.686L334.62006 67.686L334.62006 69.574L336.04007 69.574zM307.26007 32.770996C 306.31006 31.198996 303.95007 30.411997 300.18008 30.411997L300.18008 30.411997L296.4101 30.411997C 294.8301 30.411997 292.3201 31.512997 288.8601 33.714996C 295.4601 35.602997 298.9201 36.545998 299.2401 36.545998C 299.87012 36.545998 302.5401 35.288 307.2601 32.770996M336.0401 80.896996C 333.5201 66.114 325.9701 54.632996 313.3901 46.453995L313.3901 46.453995L313.3901 50.700996C 313.3901 56.676994 315.9101 62.181995 320.9401 67.214C 326.2901 71.933 331.3201 76.493996 336.0401 80.896996M316.6901 67.686C 315.1201 62.024998 313.3901 56.205997 311.5001 50.228996C 309.6201 43.937996 305.5301 40.320995 299.24008 39.376995L299.24008 39.376995L298.76007 43.150993C 301.28006 58.878994 307.26007 67.05699 316.69006 67.68599M303.48007 62.49599C 298.45007 52.430992 296.25006 44.56699 296.88007 38.90499C 294.05008 37.332993 292.32007 36.54599 291.69006 36.54599L291.69006 36.54599L286.03006 36.54599L286.03006 44.56699C 286.03006 47.08399 287.60007 50.70099 290.74005 55.41899C 294.20004 60.13699 297.19006 62.49699 299.71005 62.49599L299.71005 62.49599L303.48004 62.49599zM280.36005 37.48899C 275.65005 34.34399 270.93005 32.77199 266.21005 32.770992L266.21005 32.770992L262.91006 32.770992C 261.33008 32.77199 258.66006 33.714993 254.89006 35.601994C 257.72006 38.11899 260.07007 39.376995 261.96005 39.376995C 264.16006 39.376995 267.31006 39.062996 271.40005 38.432995C 275.49005 37.803993 278.48004 37.489994 280.36005 37.488995M276.59006 59.192993C 264.01007 44.094994 251.74005 36.545994 239.79005 36.545994C 227.52005 36.545994 221.39006 39.376995 221.39006 45.038994L221.39006 45.038994L221.39006 47.397995C 224.22006 45.824997 228.31006 45.038994 233.65005 45.038994C 247.81006 45.038994 262.12006 49.756992 276.59006 59.192993M280.84006 65.798996C 263.85007 52.902996 249.22006 46.453995 236.96005 46.453995C 228.46005 46.453995 222.64005 47.712994 219.50006 50.228996C 213.52007 54.946995 209.90005 57.620995 208.65005 58.249996C 204.87006 59.507996 201.10005 60.766994 197.32005 62.023994C 192.29005 63.911995 189.93005 66.899994 190.25005 70.989L190.25005 70.989L190.25005 71.461C 194.02005 67.057 199.84004 64.855995 207.70004 64.854996C 212.11005 64.855995 216.98004 66.270996 222.33005 69.102C 227.68005 71.618 231.14005 72.877 232.71005 72.876C 241.20006 72.877 248.44005 72.248 254.41005 70.989C 258.19006 69.730995 261.80005 68.473 265.27005 67.214C 270.30005 65.326996 275.49005 64.855995 280.84006 65.798996M296.88007 108.261C 286.81006 84.672 270.77008 72.877 248.75006 72.87601C 245.29005 72.87701 240.73006 73.34801 235.07007 74.29201C 228.15007 75.865005 223.59007 76.65101 221.39008 76.65101C 234.60008 80.42601 247.81007 84.04301 261.02008 87.503006C 275.80008 91.592 287.76007 98.51201 296.88007 108.261M236.48007 22.862999C 233.34007 22.234 231.29007 21.919998 230.35007 21.918999C 221.23007 21.919998 210.85007 26.637999 199.21007 36.073997C 187.89008 45.510998 182.07007 54.789997 181.75006 63.911995C 186.16006 60.766994 191.35007 59.035995 197.32007 58.721996C 203.30006 58.092995 208.17007 56.676994 211.95007 54.474995C 215.72008 51.958996 219.03008 46.768993 221.86008 38.904995C 225.00008 31.041996 229.88008 25.693995 236.48007 22.862995M226.58008 20.503996C 219.03008 17.987995 213.52008 16.729996 210.06007 16.728996C 188.36008 16.729996 177.51007 31.512997 177.51007 61.080997C 177.51007 62.338997 178.13007 63.126 179.39008 63.44C 180.34007 54.003998 186.16008 44.881996 196.85007 36.073997C 206.60007 27.895996 216.51007 22.705997 226.58006 20.503998M305.84006 124.304C 298.92004 110.464005 287.91006 100.404 272.81006 94.111C 258.34006 90.023 243.72006 86.091 228.93005 82.316C 227.99005 82.002 223.59006 80.272 215.72005 77.126C 209.75005 74.61 205.50005 73.351 202.98004 73.351C 200.15004 73.351 197.01004 74.295 193.55005 76.182C 195.43005 76.182 197.95004 76.497 201.10005 77.126C 204.24005 77.755 210.69005 82.631 220.44005 91.752C 221.07005 91.753 221.54005 91.595 221.86005 91.281C 222.49005 90.965996 223.12004 90.809 223.74005 90.809C 235.70006 90.809 245.45004 94.897995 253.00005 103.074C 257.09006 108.114 261.18005 112.98399 265.27005 117.703995C 266.84006 118.33399 272.03006 118.644 280.84006 118.644C 287.44006 118.644 295.78006 120.534 305.84006 124.304M224.22006 72.408005C 218.55006 68.633 213.05006 66.746 207.70006 66.746C 205.50006 66.746 201.10005 68.476006 194.49005 71.936005C 197.64005 70.992004 200.94005 70.521 204.40005 70.520004C 205.97006 70.521 208.33005 70.992004 211.48006 71.936005C 214.62006 72.880005 216.98006 73.351006 218.55006 73.351006C 219.18007 73.351006 220.13007 73.19401 221.39006 72.879005C 222.64006 72.565 223.59006 72.408005 224.22006 72.408005M185.53006 23.338005C 185.53006 17.047005 181.75006 13.902005 174.20006 13.901005C 172.94006 13.902005 170.74005 14.059005 167.60005 14.373005C 164.77005 14.6880045 162.56006 14.845005 160.99005 14.845005C 168.23006 23.653004 171.84006 37.807007 171.84006 57.309006C 171.84006 58.568005 172.16006 59.826004 172.79005 61.084007C 174.05005 61.084007 175.15005 60.770008 176.09006 60.140007C 176.09006 55.737007 177.66006 48.659008 180.81006 38.908005C 183.95006 28.843006 185.53006 23.653004 185.53006 23.338005M194.49007 61.084003L191.19006 61.084003C 188.99007 62.028004 187.89006 63.129005 187.89006 64.387L187.89006 64.387L188.83006 66.274C 190.09006 65.645004 191.97006 63.915 194.49007 61.084003M213.84007 89.865005C 213.52007 88.922005 211.79007 87.19201 208.65007 84.675C 205.50008 82.159004 203.46007 80.901 202.51007 80.9L202.51007 80.9L200.15007 80.9L200.63007 81.844C 200.63007 83.103004 200.00006 84.518005 198.74007 86.090004C 197.48007 87.664 196.85007 88.76401 196.85007 89.393005C 200.31007 89.70801 204.40007 90.023 209.12007 90.337006L209.12007 90.337006L210.53008 90.337006L213.84007 89.865005zM269.98007 139.87401C 264.01007 117.54401 256.14008 103.86401 246.39008 98.83001C 241.99008 96.94301 226.42007 94.89801 199.68008 92.69601C 232.39008 107.48401 255.83008 123.20401 269.9801 139.87401M171.3701 47.87301C 171.3701 39.06601 168.3801 29.944008 162.4101 20.50701C 156.4301 10.756009 149.5101 5.881009 141.6501 5.8800097C 141.3301 5.8806095 139.4501 6.35241 135.9901 7.2957096C 142.28009 8.23971 146.0501 11.70001 147.31009 17.675709L147.31009 17.675709L147.31009 33.71771C 147.31009 40.63771 149.67009 46.614708 154.39009 51.64671C 162.8801 60.13971 167.4401 64.70071 168.0701 65.32971C 168.0701 64.07171 168.7001 61.083714 169.9601 56.36471C 170.9001 52.590714 171.3701 49.759712 171.3701 47.87271M188.83011 73.35071C 188.83011 72.092705 188.2001 70.520706 186.94011 68.632706C 185.68011 66.4307 184.58011 65.329704 183.6401 65.329704C 180.1801 65.329704 178.4501 67.8467 178.4501 72.87871C 178.4501 74.451706 179.08011 75.55271 180.3401 76.18171L180.3401 76.18171L180.3401 80.42871L180.8101 81.37171C 181.1201 79.170715 182.5401 77.91171 185.05011 77.59771C 187.57011 76.96871 188.83011 75.55271 188.83011 73.35071M197.32011 82.315704C 197.32011 81.0577 196.85011 80.1137 195.91011 79.4847C 195.2801 78.855705 194.33011 78.5417 193.08011 78.5407C 188.99011 78.5417 186.94011 79.9567 186.94011 82.787704C 186.94011 85.3037 188.3601 86.562706 191.19011 86.56171C 195.2801 86.562706 197.32011 85.146706 197.32011 82.315704M280.84012 167.24371C 273.60013 147.4237 261.3301 131.54372 244.03012 119.59371C 226.10013 109.84371 208.33012 100.08371 190.72012 90.336716C 186.31012 87.82072 184.74013 84.20271 186.00012 79.48472C 183.80013 80.113716 182.70012 81.21472 182.70012 82.78772C 182.70012 83.41672 182.85011 84.67472 183.17012 86.56172C 183.80013 88.13472 184.11012 89.39372 184.11012 90.33672C 194.18011 93.167725 202.98012 103.70372 210.53012 121.95372C 216.20012 125.41372 223.27013 132.48372 231.77013 143.18372C 255.36012 147.90372 271.7101 155.92372 280.84012 167.24371M178.45012 66.74371C 178.45012 64.54171 177.03012 63.440712 174.20012 63.440712C 173.26012 63.440712 172.32011 64.06971 171.37012 65.32771C 170.43011 66.27171 169.64012 66.90071 169.01012 67.214714L169.01012 67.214714L169.01012 72.87672C 171.53012 71.933716 173.89012 71.61871 176.09012 71.933716C 176.09012 71.30472 176.40012 70.518715 177.03012 69.574715C 177.98012 68.31671 178.45012 67.37271 178.45012 66.74371M160.05013 61.081715C 158.48012 59.194714 155.96013 56.835716 152.50012 54.003716C 153.13013 59.036716 153.91013 62.811714 154.86012 65.32771C 155.80013 64.06971 157.53012 62.654713 160.05013 61.081715M177.51013 79.48271C 177.51013 76.02271 176.09013 74.29271 173.26013 74.29271C 168.86014 74.29271 166.65013 75.86571 166.65013 79.01071C 166.65013 80.269714 166.97014 81.05571 167.60013 81.36971L167.60013 81.36971L168.07013 81.36971C 170.59013 81.37071 172.47012 82.628716 173.73013 85.144714C 176.25014 81.05572 177.51013 79.16872 177.51013 79.48271M166.65013 71.461716C 166.65013 67.05772 164.92014 64.85671 161.46013 64.85571C 157.69012 64.85671 155.80013 67.21571 155.80013 71.933716C 155.80013 72.877716 156.12013 74.13572 156.75012 75.70772C 157.37012 75.70872 158.32013 75.865715 159.58012 76.17972C 160.83012 76.49472 161.78012 76.65172 162.41013 76.65172C 165.24013 76.65172 166.65013 74.921715 166.65013 71.461716M182.70013 88.91872C 182.70013 87.66171 182.38013 86.71772 181.75014 86.087715L181.75014 86.087715L179.86014 87.975716C 179.86014 86.71771 180.34013 85.616714 181.28014 84.672714L181.28014 84.672714L179.86014 83.728714C 175.46014 85.30171 173.26013 86.87471 173.26013 88.447716L173.26013 88.447716L173.26013 92.22172C 175.46013 93.48072 177.03014 94.10972 177.98013 94.10872C 181.12013 94.10972 182.70013 92.37972 182.70013 88.91872M206.76013 118.171715C 206.44012 115.031715 203.77013 110.311714 198.74013 104.02171C 193.70013 97.726715 189.62013 94.58171 186.47012 94.58071L186.47012 94.58071L183.64012 94.58071C 184.27013 99.29971 187.10013 104.17171 192.13013 109.21171C 197.16013 114.24171 202.04013 117.231705 206.76013 118.17171M153.44012 75.7077L153.44012 72.8767C 153.44012 71.9337 152.18013 65.6427 149.67012 54.0037C 147.47012 42.0517 146.21011 34.1877 145.89012 30.4127C 141.80013 21.2917 135.51012 16.730701 127.02012 16.729702C 122.62012 16.730701 117.27012 20.504702 110.98012 28.053703C 121.040115 28.682703 129.69012 34.816704 136.93011 46.454704C 142.59012 56.206703 148.10011 65.9577 153.44011 75.7077M171.37012 88.9187C 171.37012 87.0317 170.43011 84.9877 168.54012 82.7857C 164.45012 84.6727 162.41011 87.346695 162.41011 90.8067C 162.41011 93.9527 163.98012 95.524704 167.13011 95.524704C 169.96011 95.524704 171.37012 93.3227 171.37012 88.9187M163.35011 82.7857C 163.35011 79.639694 161.7801 78.067696 158.63011 78.066696C 154.8601 78.067696 152.97011 80.2697 152.97011 84.6727C 152.97011 87.5037 154.8601 88.9197 158.63011 88.9187C 161.7801 88.9197 163.35011 86.8747 163.35011 82.7857M233.65012 167.2417C 233.65012 153.4017 231.14012 143.3317 226.10011 137.0417C 222.6401 132.3317 214.15012 126.3517 200.63011 119.1117C 196.85011 117.231705 192.60011 113.451706 187.8901 107.7917C 183.1701 101.8117 179.55011 97.883705 177.0301 95.996704C 180.1801 102.2917 190.5601 117.0717 208.1701 140.3517C 221.3901 157.0217 228.3101 171.8017 228.9301 184.70169C 232.0801 175.26169 233.6501 169.4417 233.6501 167.2417M178.9201 116.2817C 178.9201 108.4217 176.72011 101.5017 172.3201 95.524704C 171.0601 96.1537 169.4801 97.412704 167.6001 99.299706C 169.4801 102.13171 171.2101 107.7917 172.7901 116.28171C 174.3601 124.78171 176.0901 130.1217 177.9801 132.33171C 178.6101 121.631714 178.9201 116.28171 178.9201 116.28171M152.97011 78.06671C 149.2001 74.921715 145.2601 68.94571 141.18011 60.13771C 137.09012 50.072712 133.47011 43.30971 130.32011 39.84971C 124.98012 33.55871 117.430115 30.412708 107.680115 30.412708C 100.13011 30.412708 93.04912 32.142708 86.444115 35.602707C 78.265114 39.692707 74.17612 45.039707 74.17612 51.644707C 74.17612 52.903706 74.64812 53.846706 75.59212 54.475708C 76.85012 51.330708 78.265114 48.185707 79.83812 45.039707C 82.35412 40.006706 86.12912 37.490707 91.16212 37.489708C 104.37012 37.490707 115.70012 43.309708 125.13011 54.94771C 136.1401 68.15871 145.4201 75.86571 152.97011 78.06671M115.22011 49.757713C 107.05011 43.781715 100.76011 40.793713 96.35211 40.792713C 89.11711 40.793713 84.39911 43.466713 82.19711 48.813713C 89.74611 46.926712 94.622116 45.98371 96.82411 45.98271C 101.540115 45.98371 107.680115 47.24171 115.22011 49.757713M227.05011 189.41772C 227.05011 175.57773 221.54012 160.94772 210.5301 145.53772C 200.7801 132.94772 190.8701 120.36772 180.8101 107.78772L180.8101 107.78772L180.8101 113.44772C 180.4901 135.15771 183.1701 149.93773 188.83011 157.79773C 189.1401 158.11774 196.0601 165.34773 209.5901 179.50772C 217.77011 187.99773 222.4901 196.64772 223.7401 205.45772C 225.9501 198.21771 227.0501 192.87772 227.0501 189.41772M137.40009 87.027725L137.40009 85.612724L123.250084 81.83772L123.250084 83.25372L137.40009 87.027725zM162.88008 105.42773L162.88008 96.93573C 155.64008 100.07773 152.18008 110.45773 152.50008 128.07773C 159.42007 115.17773 162.88008 107.62773 162.88008 105.42773M151.56009 87.499725C 149.04008 86.556725 145.5801 84.82673 141.18008 82.30972C 134.26009 74.76073 127.330086 67.36872 120.41008 60.13372C 112.55008 52.58472 103.430084 48.810722 93.04908 48.80972C 88.96008 48.81072 84.39908 50.85472 79.36608 54.943718C 74.64808 58.71872 71.50208 62.493717 69.930084 66.267715C 74.96208 64.69472 80.152084 63.908714 85.500084 63.908714C 96.50909 63.908714 109.720085 67.99771 125.13008 76.17571C 140.55008 84.03971 148.25008 87.97171 148.25008 87.97171C 148.25008 87.97171 149.35008 87.81471 151.56007 87.49971M500.71008 253.10971C 500.71008 227.9497 494.73007 200.42972 482.7801 170.5397C 471.14008 141.5997 450.5301 115.1797 420.9701 91.2767C 391.4001 67.0557 361.52008 53.215702 331.3201 49.755703C 337.6101 63.281704 340.7601 76.8077 340.7601 90.3327C 340.7601 92.534706 340.1301 93.9507 338.8701 94.578705C 338.5601 92.37771 337.61008 89.231705 336.0401 85.14271C 332.8901 80.424706 327.5501 76.177704 320.0001 72.40371C 312.7601 68.31471 306.6301 66.26971 301.6001 66.26971C 298.1401 66.26971 294.3601 63.910706 290.2701 59.191708C 286.50012 54.47471 284.6101 50.38471 284.6101 46.924706C 281.15012 46.610706 276.2701 46.924706 269.9801 47.868706C 273.4401 52.586704 279.5801 58.877705 288.3801 66.74171C 290.9001 67.68571 294.5201 69.41571 299.24008 71.93171L299.24008 71.93171L298.29007 72.87471C 286.65005 69.41571 279.42007 67.68571 276.59006 67.68471C 277.22006 67.68571 272.66006 68.47171 262.91006 70.04371C 275.49005 73.18971 286.18005 82.46871 294.99005 97.88171C 301.91006 111.08971 308.99005 124.149704 316.22006 137.0397L316.22006 137.0397L314.81006 137.5197C 307.89005 126.5097 293.89005 120.999695 272.81006 120.999695L272.81006 120.999695L269.98007 120.999695C 268.73007 121.319695 267.78006 121.62969 267.1501 121.94969C 268.1001 125.08969 269.3501 129.9697 270.93008 136.56969C 271.5601 138.1397 274.54007 145.21968 279.89008 157.79968C 284.61008 168.80968 286.97006 175.25967 286.97006 177.14969C 286.97006 178.08969 286.50006 178.7197 285.55005 179.03969C 281.46005 170.85968 274.39005 163.61969 264.32004 157.32968C 254.88004 151.97968 245.29004 148.51968 235.54004 146.94968C 235.85004 150.09967 236.01004 153.55968 236.01004 157.32968C 236.01004 164.87968 234.75005 174.15968 232.24004 185.16968C 227.83003 202.46968 225.47003 211.58968 225.16003 212.53967C 228.93004 211.90967 234.12004 210.32967 240.73004 207.81967C 241.36005 207.49966 242.62004 206.08968 244.50005 203.56967C 246.71005 201.04967 248.12004 199.79967 248.75005 199.79967L248.75005 199.79967L249.70004 199.79967L249.70004 202.15967C 249.69005 204.98967 248.12004 210.01967 244.98004 217.24966C 242.15004 224.16966 239.63004 228.88966 237.43004 231.40967C 241.20004 232.97968 244.66003 236.59967 247.81004 242.25967C 252.21004 250.11967 255.04004 254.68967 256.30005 255.93967L256.30005 255.93967L255.36005 256.88968C 250.32005 254.68968 246.55005 253.73969 244.03004 254.05968C 244.66005 256.25967 246.55005 259.24966 249.70004 263.01968L249.70004 263.01968L248.75005 264.4397C 246.86005 263.4897 243.88005 262.2297 239.79004 260.6597C 242.62004 269.1497 244.03004 274.0297 244.03004 275.2897C 244.03004 275.5997 243.88005 275.9197 243.56004 276.2297C 242.93004 276.2297 239.63005 274.1897 233.65004 270.0997L233.65004 270.0997L230.82004 270.0997L230.82004 274.8197C 230.82004 276.6997 231.61003 278.4297 233.18004 280.0097L233.18004 280.0097L230.82004 280.4797C 228.93004 277.0197 225.79004 273.86972 221.39005 271.0397C 220.76004 274.4997 219.34004 279.6897 217.14005 286.6097C 216.20004 282.83972 213.36005 277.64972 208.65004 271.0397C 206.76004 274.8197 204.09004 278.5897 200.63004 282.3697C 200.63004 278.2797 199.52003 272.4597 197.32004 264.9097L197.32004 264.9097L194.96004 264.9097C 186.78003 264.9097 178.29004 267.4197 169.48004 272.4597L169.48004 272.4597L169.01004 271.03967C 171.21004 265.37967 174.99004 258.14966 180.34004 249.33968C 182.22005 247.44968 185.05005 246.03967 188.83005 245.08968C 192.60005 243.82968 194.96005 242.88968 195.91005 242.25967C 197.79005 240.36967 198.74005 238.16968 198.74005 235.65967C 198.74005 229.67967 195.91005 223.69966 190.25005 217.72968C 184.90004 211.74968 179.39005 208.28967 173.73004 207.34967C 170.90004 210.80968 168.07004 215.51967 165.24004 221.49966C 161.78003 229.35966 159.58003 234.07967 158.63004 235.65967C 158.00003 227.47968 156.27003 216.93967 153.44003 204.03967L153.44003 204.03967L150.14003 203.56967C 135.67003 202.93967 121.99003 209.85966 109.09003 224.32967C 96.509026 238.79967 90.218025 253.57967 90.218025 268.67966C 90.218025 270.56967 90.37502 272.29965 90.690025 273.86966C 91.94803 274.18967 96.66602 274.33966 104.84003 274.33966C 120.89003 274.33966 132.05002 280.63965 138.34003 293.21967C 138.66003 294.78967 139.45003 297.14966 140.70003 300.29965C 145.42003 307.21967 147.78003 313.65964 147.78003 319.63965C 147.78003 322.15964 147.47003 326.08966 146.84003 331.43964C 146.52002 336.77963 146.37003 340.70963 146.37003 343.22964C 146.37003 362.72964 150.77002 381.75964 159.58003 400.31964C 169.33003 421.07965 188.99004 437.11963 218.55003 448.44965C 242.77003 457.56964 268.57004 462.12964 295.93002 462.12964C 352.24002 462.12964 400.36002 441.36963 440.31003 399.84964C 480.57004 358.32965 500.71002 309.41965 500.71002 253.10963M244.03003 209.69963C 239.00003 212.84962 233.81003 214.41963 228.46002 214.41963C 227.52002 214.41963 225.32002 216.77963 221.86002 221.49963C 218.08002 227.15964 216.04001 230.14963 215.72002 230.45964L215.72002 230.45964L218.08002 230.45964C 222.80002 230.46964 227.83002 228.10963 233.18002 223.38963C 238.84003 218.66963 242.46002 214.10963 244.03003 209.69963M241.67003 218.66963C 235.38004 225.58963 229.41003 229.83963 223.74002 231.40964L223.74002 231.40964L229.41002 231.40964C 235.07002 231.40964 239.16002 227.15964 241.67001 218.66963M221.39001 210.17963C 221.39001 201.36963 217.30002 192.24963 209.12001 182.80963C 201.88 175.25963 194.65001 167.70963 187.41 160.15964C 187.73001 162.04964 187.89 163.93964 187.89 165.81964C 187.89 178.71964 184.27 190.98964 177.03 202.62964C 181.12 204.50964 186.78 207.81964 194.02 212.53964C 204.09 221.33965 210.06 225.74965 211.95001 225.74965C 218.24 225.74965 221.39001 220.55965 221.39001 210.17966M185.05002 169.12965C 185.05002 153.70966 181.28001 141.44965 173.73001 132.32965L173.73001 132.32965L173.73001 141.75964C 174.05002 145.84964 174.20001 148.99965 174.20001 151.19965C 174.20001 160.00964 171.21 180.91965 165.24 213.94965C 169.96 209.22964 174.36 202.30965 178.45001 193.18965C 182.85 183.74965 185.05002 175.72964 185.05002 169.12965M129.85002 80.42465C 112.870026 70.35865 96.82402 65.32565 81.72502 65.32565C 77.32102 65.32565 70.24402 67.99966 60.49302 73.34665C 50.74202 78.69465 44.766018 83.255646 42.56402 87.02965C 40.99102 89.546646 39.41802 95.20865 37.84602 104.019646C 40.99102 99.61165 44.13602 95.20865 47.28202 90.80464C 50.74202 86.08664 55.14602 83.72764 60.49302 83.72664C 62.69502 83.72764 65.84002 84.356636 69.93002 85.61464C 74.33302 86.87264 77.47902 87.50164 79.36602 87.50164C 82.19702 87.50164 86.60102 86.55864 92.57702 84.67064C 98.86802 82.468636 103.74002 81.36864 107.20002 81.36764C 107.83002 81.36864 108.78002 81.525635 110.03002 81.83964C 111.61002 82.15464 112.87002 82.31164 113.81002 82.31164C 115.38002 82.31164 117.900024 81.997635 121.36002 81.36764C 124.82002 80.73864 127.650024 80.42464 129.85002 80.42464M173.26003 150.24963C 173.26003 144.58963 172.47003 136.40964 170.90002 125.719635C 169.33002 113.76964 167.60002 106.05963 165.71002 102.59963C 165.08002 110.45963 160.99002 119.89963 153.44002 130.90964C 146.21002 141.91963 142.59001 151.35963 142.59001 159.21964C 142.59001 165.50963 145.42001 175.72963 151.08002 189.88963C 156.75002 204.03963 159.89001 214.88963 160.52002 222.43964C 169.01003 192.87964 173.26003 168.80963 173.26003 150.24963M249.70003 251.69963C 244.03003 242.25963 240.42003 237.06963 238.84003 236.12964C 237.27002 234.86964 231.45003 233.92964 221.39003 233.29964C 226.42003 246.50964 234.91003 252.63963 246.86003 251.69963L246.86003 251.69963L249.70003 251.69963zM243.09003 259.24963C 242.46002 257.03964 241.04002 254.83963 238.84003 252.63963L238.84003 252.63963L236.01003 252.63963L236.01003 253.10963C 236.01003 254.68964 236.80002 255.93964 238.37003 256.88965C 239.94003 257.51965 241.52002 258.29965 243.09003 259.24963M220.91003 236.12964L214.31003 232.81964L213.84003 233.76964L220.44003 237.06964L220.91003 236.12964zM127.96004 87.969635C 119.47004 84.509636 112.55003 82.77963 107.200035 82.77963C 93.993034 82.77963 82.51204 88.28463 72.76103 99.29363C 68.671036 103.69563 61.43703 114.705635 51.05703 132.32564C 57.033028 129.48564 65.52603 124.775635 76.535034 118.165634C 88.173035 109.04563 96.19403 103.065636 100.60004 100.235634C 110.660034 93.63164 119.79004 89.54263 127.96004 87.969635M158.16003 91.27264L156.27003 89.384636C 154.07004 90.64364 151.08003 93.00264 147.31003 96.46264C 144.16003 100.86564 138.82002 106.525635 131.27002 113.44564C 105.79002 126.97564 93.04902 144.58563 93.04902 166.29564C 93.04902 170.06564 93.83502 175.57564 95.40802 182.80563C 96.98102 191.29564 98.554016 196.33563 100.13002 197.90564C 106.73002 155.43564 126.08002 119.89564 158.16002 91.27564M160.99002 93.159645C 145.89001 101.965645 132.37003 118.79565 120.41002 143.64565C 109.09002 165.97565 102.640015 186.73564 101.07002 205.92564C 104.53002 200.89565 111.61002 194.28564 122.30002 186.10565C 132.05002 178.55565 138.50002 171.48566 141.65002 164.87566L141.65002 164.87566L141.65002 162.04565C 141.65002 157.32565 144.01003 148.04565 148.72003 134.20566C 149.35004 132.63565 150.14003 125.71566 151.08003 113.445656C 151.71004 105.265656 155.02003 98.50665 160.99004 93.15965M213.36003 229.04965L212.89003 229.04965C 210.38004 229.04965 205.82002 226.68965 199.21002 221.96965C 199.21002 223.22964 199.68002 225.58965 200.63002 229.04965C 201.88002 232.19965 202.36002 234.86966 202.04002 237.06966C 202.98003 235.49965 204.71002 233.13966 207.23003 229.98965L207.23003 229.98965L208.65002 231.40965C 209.28003 230.77965 210.85002 229.98965 213.36003 229.04965M238.84003 269.62964C 236.01003 251.69965 226.58003 240.21964 210.53003 235.17964C 213.99004 249.64964 215.88004 257.19965 216.20003 257.82965C 216.82002 258.45966 224.37003 262.38965 238.84003 269.62964M144.01003 89.859634L131.74002 89.859634C 119.79002 89.859634 101.23002 100.078636 76.06302 120.52863C 67.88502 125.55863 59.707016 130.43863 51.52802 135.15863C 41.77702 141.12863 35.64402 148.04863 33.12702 155.91862C 40.99102 146.16862 53.10102 140.97862 69.45802 140.34863C 86.12902 139.71863 96.82402 137.51863 101.54002 133.73863C 103.74002 130.90863 107.20003 126.97863 111.92002 121.94863C 116.33002 119.428635 121.20002 116.59863 126.55002 113.44863C 128.12003 109.35863 131.42001 103.538635 136.46002 95.99363C 138.03003 94.73563 140.55002 92.69063 144.01003 89.85963M228.46002 272.92963L228.46002 268.67963C 228.46002 265.5396 226.10002 263.80963 221.39001 263.48962L221.39001 263.48962L221.39001 267.73962C 223.27002 269.62964 225.63002 271.35962 228.46002 272.92963M219.97002 262.07962C 214.94002 259.55963 211.95001 255.78963 211.01001 250.74962C 210.06001 245.40962 209.28001 240.21962 208.65001 235.17963L208.65001 235.17963L208.65001 237.06963C 208.33 238.63963 208.33 240.84962 208.65001 243.67963C 209.28001 246.50963 209.59001 248.54962 209.59001 249.80963C 209.59001 251.37964 208.65001 253.26964 206.76001 255.46964C 205.19 257.35965 204.40001 258.45963 204.40001 258.76962C 204.40001 257.19962 208.49 263.64963 216.67001 278.11963C 218.87001 270.56964 219.97002 265.21964 219.97002 262.07962M206.76001 248.38962C 206.76001 246.81961 206.13 243.19962 204.87001 237.53961C 202.67001 240.36961 197.79001 244.61961 190.25002 250.27962C 183.95001 255.30962 179.39001 260.3496 176.56001 265.3796C 182.85 264.1196 189.14001 262.85962 195.44002 261.60962C 202.98001 259.08963 206.76001 254.68962 206.76001 248.38962M206.76001 267.26962C 206.76001 266.3196 205.50002 263.80963 202.98001 259.71964L202.98001 259.71964L199.68001 263.48962C 201.25002 265.37964 202.51001 268.52963 203.46 272.92963C 205.66 268.52963 206.76001 266.63962 206.76001 267.26962M190.25002 247.44962L187.41002 247.44962C 185.21002 247.44962 182.85002 249.17961 180.34001 252.63962C 178.13 256.0996 177.03001 258.92963 177.03001 261.1296C 181.12001 255.1596 185.53001 250.59961 190.25002 247.44962M151.56001 198.37961C 149.35 192.7196 146.05002 184.06961 141.65001 172.42961C 133.78001 179.34961 125.92001 186.10962 118.06001 192.7196C 107.99001 201.5296 102.01001 209.3896 100.13001 216.3096C 99.81201 218.1996 99.183014 219.6096 98.23901 220.5596L98.23901 220.5596L96.82401 219.1396C 97.138016 216.9396 97.29501 214.5796 97.29601 212.0596C 97.29501 207.6596 96.666016 203.2596 95.40801 198.8496C 92.89201 202.93959 91.63401 206.8696 91.63401 210.6496C 91.63401 209.3896 93.20601 215.3696 96.35201 228.57959C 102.960014 219.76959 110.98001 212.53958 120.41001 206.8696C 131.11002 200.8996 141.49 198.0696 151.56001 198.3796M94.46501 142.7096C 91.319016 142.07959 89.74601 141.7596 89.74601 141.7596C 87.54401 141.7596 77.16401 142.8596 58.60601 145.0596C 53.888012 145.6896 48.06801 148.5196 41.14801 153.5596C 34.228012 158.5896 30.76801 163.3096 30.76801 167.7096L30.76801 167.7096L30.76801 170.0696C 31.08301 171.32959 31.24001 172.1196 31.24001 172.4296C 58.60601 179.6696 76.06301 188.93959 83.61301 200.26959C 86.44301 193.9796 88.173004 184.3796 88.80301 171.4896C 89.74601 158.27959 91.63401 148.6796 94.46501 142.7096M82.197014 223.38959L82.197014 215.36958C 82.197014 202.15958 77.00701 193.81958 66.627014 190.35959C 73.23202 204.82959 78.42201 215.83958 82.197014 223.38959M69.458015 204.03958C 69.77202 200.57957 67.72801 196.01958 63.324017 190.35959C 59.235016 184.69958 55.46002 181.86958 52.000015 181.86958L52.000015 181.86958L49.641014 181.86958C 53.101013 185.95958 59.707016 193.34958 69.458015 204.03958M92.57701 233.29958C 92.57701 221.33957 89.74601 213.47958 84.084015 209.69957L84.084015 209.69957L84.084015 213.47957C 84.084015 227.31956 86.28602 237.22957 90.69002 243.19957C 91.94802 238.79958 92.57702 235.49957 92.57702 233.29958M51.05702 187.05957C 43.822018 179.81956 36.115017 176.20956 27.937017 176.20956C 26.994017 176.20956 25.735018 176.51956 24.163017 177.14957C 28.566017 178.08957 37.531017 181.39957 51.057014 187.05957M75.59201 215.83957C 74.64801 210.48956 67.72801 204.66957 54.83101 198.37958C 43.19301 192.71957 33.91401 189.88957 26.994009 189.88957L26.994009 189.88957L26.994009 192.24957C 26.994009 196.33957 30.61101 199.31958 37.84601 201.20958C 43.19301 202.46957 48.697006 203.72958 54.35901 204.98958C 59.07801 207.18958 66.15501 210.80959 75.59201 215.83958M84.55601 232.34958C 82.354004 224.16959 74.962006 216.93958 62.380005 210.64958C 51.371006 205.29958 40.991005 202.62958 31.240005 202.62958C 32.184006 209.85957 35.015007 214.26958 39.733006 215.83958C 44.766006 217.09958 49.798004 218.34958 54.831005 219.60959C 63.953003 221.49959 73.86101 225.74959 84.55601 232.3496M87.85901 245.0896L87.85901 242.7296C 87.85901 236.4396 81.09601 230.7796 67.57101 225.7496C 56.561005 221.3396 47.282005 219.1396 39.73301 219.1396C 38.47501 219.1396 37.84601 219.2996 37.84601 219.6096C 37.84601 225.8996 44.294006 230.6196 57.19001 233.7696C 73.54701 237.8596 83.77001 241.62961 87.85901 245.0896M139.29001 302.6496C 139.29001 299.50958 137.09001 295.4196 132.68001 290.3896C 128.59001 285.34958 124.98001 282.5196 121.83001 281.8896C 123.72001 284.71957 126.08001 291.1696 128.91 301.2396C 131.11 309.4196 134.26001 315.0796 138.34 318.2196C 138.97 316.9696 139.29 311.7796 139.29 302.6496M144.95 323.4096C 144.95 319.63962 143.84999 313.5096 141.65 305.0096C 140.06999 318.5396 139.29 323.88962 139.29 321.0596C 139.29 321.0596 140.86 324.19962 144.01 330.4896C 144.01 329.5496 144.15999 328.28958 144.48 326.7196C 144.79 325.13962 144.95 324.0396 144.95 323.4096M88.80299 254.0596L88.80299 248.3896C 75.590996 238.3296 61.75099 233.4496 47.281994 233.7696C 50.741993 238.48961 57.189995 242.5796 66.62699 246.03961C 73.86099 248.5496 81.25299 251.22961 88.80299 254.05962M127.95999 306.42963L127.95999 302.17963C 127.95999 299.34964 126.38999 295.10962 123.24999 289.43964C 120.409996 283.46964 117.73999 280.00964 115.21999 279.05963C 112.70999 278.11963 108.77999 277.64963 103.42999 277.64963C 105.94999 279.84964 109.71999 284.71964 114.74999 292.26962C 118.84 298.5696 123.24999 303.27963 127.95999 306.42963M112.869995 295.57962C 107.52 282.98962 100.59999 276.69962 92.104996 276.69962L92.104996 276.69962L83.613 276.69962C 87.387 283.3096 91.791 287.5596 96.824 289.4396C 102.17 291.32962 107.52 293.3796 112.869995 295.57962M135.98999 319.16962C 134.09999 316.64963 132.04999 314.13962 129.84999 311.61963C 127.95999 308.78964 125.12999 307.36963 121.35999 307.36963C 114.74999 307.36963 102.63999 310.98962 85.02799 318.21964C 93.20599 324.51962 99.34 327.65964 103.42999 327.65964C 104.99999 327.65964 109.409996 326.24963 116.63999 323.40964C 123.869995 320.26962 130.31999 318.84964 135.98999 319.16965M144.01 340.86966C 144.01 335.51965 141.65 328.91965 136.93 321.05966L136.93 321.05966L134.56999 321.05966C 125.759995 320.42966 117.10999 322.78967 108.619995 328.12967C 110.189995 329.38968 116.329994 331.90967 127.02 335.67966C 134.56999 338.19965 139.92 341.96967 143.06 347.00964C 143.06 346.37964 143.22 345.42966 143.53 344.16965C 143.85 342.59964 144.01 341.49963 144.01 340.86966M123.24999 305.00964C 117.26999 299.66965 110.81999 296.98965 103.899994 296.98965C 96.66599 296.98965 86.129 299.81964 72.288994 305.48965C 76.37799 312.40967 80.15199 315.86966 83.61299 315.86966C 84.870995 315.86966 90.37499 314.13965 100.12999 310.67966C 110.18999 307.21967 117.899994 305.32965 123.24999 305.00964M106.259995 295.10965C 93.048996 290.69965 85.342995 288.49966 83.14099 288.49966C 76.53499 288.49966 70.71599 289.75967 65.68299 292.26965L65.68299 292.26965L65.68299 296.04965L72.288994 302.64966C 73.547 302.64966 78.107994 301.39966 85.97199 298.87967C 94.149994 296.35968 100.90999 295.10968 106.259995 295.10968M82.19699 286.60968C 75.90599 283.1497 66.78399 277.6497 54.830994 270.09967C 57.032993 274.49966 60.178993 281.10968 64.26799 289.90967C 68.35699 288.65967 74.33299 287.55966 82.19699 286.60968M156.26999 408.3397C 153.43999 402.3697 150.29999 391.1997 146.84 374.8397C 143.37999 359.4297 140.39 349.8397 137.87 346.0597C 136.61 343.85968 131.58 340.7097 122.77 336.6297C 114.28 332.5397 108.619995 330.4897 105.78999 330.4897C 104.52999 330.4897 103.27 330.8097 102.009995 331.4397C 106.42 344.3297 113.96999 358.4897 124.659996 373.8997C 135.36 389.3097 145.89 400.78967 156.26999 408.3397M183.63998 68.6297L182.69998 70.5167L181.74998 70.0447L182.69998 68.1577L183.63998 68.6297zM174.19998 65.7987L173.25998 67.6857L172.31998 67.2137L173.25998 65.3267L174.19998 65.7987zM162.87997 67.2137L162.40997 69.5737L160.98997 69.5737L161.45998 67.2137L162.87997 67.2137" stroke="none" fill="#000000" fill-rule="nonzero" />
	</g>
</g>
</svg>